TITLE ""
FILE "DISC2Track26.mp3" MP3
  TRACK 01 AUDIO
    TITLE "DISC2Track26_01"
    INDEX 01 00:00:00
  TRACK 02 AUDIO
    TITLE "DISC2Track26_02"
    INDEX 01 00:01:63
  TRACK 03 AUDIO
    TITLE "DISC2Track26_03"
    INDEX 01 00:02:03
  TRACK 04 AUDIO
    TITLE "DISC2Track26_04"
    INDEX 01 00:06:11
  TRACK 05 AUDIO
    TITLE "DISC2Track26_05"
    INDEX 01 00:09:19
  TRACK 06 AUDIO
    TITLE "DISC2Track26_06"
    INDEX 01 00:11:69
  TRACK 07 AUDIO
    TITLE "DISC2Track26_07"
    INDEX 01 00:12:10
  TRACK 08 AUDIO
    TITLE "DISC2Track26_08"
    INDEX 01 00:16:33
  TRACK 09 AUDIO
    TITLE "DISC2Track26_09"
    INDEX 01 00:20:21
  TRACK 10 AUDIO
    TITLE "DISC2Track26_10"
    INDEX 01 00:23:56
  TRACK 11 AUDIO
    TITLE "DISC2Track26_11"
    INDEX 01 00:23:72
  TRACK 12 AUDIO
    TITLE "DISC2Track26_12"
    INDEX 01 00:27:56
  TRACK 13 AUDIO
    TITLE "DISC2Track26_13"
    INDEX 01 00:31:11
  TRACK 14 AUDIO
    TITLE "DISC2Track26_14"
    INDEX 01 00:34:13
  TRACK 15 AUDIO
    TITLE "DISC2Track26_15"
    INDEX 01 00:34:31
  TRACK 16 AUDIO
    TITLE "DISC2Track26_16"
    INDEX 01 00:37:08
  TRACK 17 AUDIO
    TITLE "DISC2Track26_17"
    INDEX 01 00:40:27
  TRACK 18 AUDIO
    TITLE "DISC2Track26_18"
    INDEX 01 00:43:22
  TRACK 19 AUDIO
    TITLE "DISC2Track26_19"
    INDEX 01 00:43:40
  TRACK 20 AUDIO
    TITLE "DISC2Track26_20"
    INDEX 01 00:46:42
  TRACK 21 AUDIO
    TITLE "DISC2Track26_21"
    INDEX 01 00:49:15
  TRACK 22 AUDIO
    TITLE "DISC2Track26_22"
    INDEX 01 00:51:33
  TRACK 23 AUDIO
    TITLE "DISC2Track26_23"
    INDEX 01 00:51:43
  TRACK 24 AUDIO
    TITLE "DISC2Track26_24"
    INDEX 01 00:54:69
  TRACK 25 AUDIO
    TITLE "DISC2Track26_25"
    INDEX 01 00:57:53
  TRACK 26 AUDIO
    TITLE "DISC2Track26_26"
    INDEX 01 01:00:12
  TRACK 27 AUDIO
    TITLE "DISC2Track26_27"
    INDEX 01 01:00:28
  TRACK 28 AUDIO
    TITLE "DISC2Track26_28"
    INDEX 01 01:03:50
  TRACK 29 AUDIO
    TITLE "DISC2Track26_29"
    INDEX 01 01:06:44
  TRACK 30 AUDIO
    TITLE "DISC2Track26_30"
    INDEX 01 01:09:15
  TRACK 31 AUDIO
    TITLE "DISC2Track26_31"
    INDEX 01 01:09:33
  TRACK 32 AUDIO
    TITLE "DISC2Track26_32"
    INDEX 01 01:13:23
  TRACK 33 AUDIO
    TITLE "DISC2Track26_33"
    INDEX 01 01:16:70
  TRACK 34 AUDIO
    TITLE "DISC2Track26_34"
    INDEX 01 01:20:05
  TRACK 35 AUDIO
    TITLE "DISC2Track26_35"
    INDEX 01 01:20:21
  TRACK 36 AUDIO
    TITLE "DISC2Track26_36"
    INDEX 01 01:23:23
  TRACK 37 AUDIO
    TITLE "DISC2Track26_37"
    INDEX 01 01:26:45
  TRACK 38 AUDIO
    TITLE "DISC2Track26_38"
    INDEX 01 01:29:26
  TRACK 39 AUDIO
    TITLE "DISC2Track26_39"
    INDEX 01 01:29:45
  TRACK 40 AUDIO
    TITLE "DISC2Track26_40"
    INDEX 01 01:33:22
  TRACK 41 AUDIO
    TITLE "DISC2Track26_41"
    INDEX 01 01:37:23
  TRACK 42 AUDIO
    TITLE "DISC2Track26_42"
    INDEX 01 01:40:75
